<svg width="79" height="244" viewBox="0 0 79 244" fill="none" xmlns="http://www.w3.org/2000/svg">
<path d="M42.3333 21C42.3333 22.4728 43.5272 23.6667 45 23.6667C46.4728 23.6667 47.6667 22.4728 47.6667 21C47.6667 19.5272 46.4728 18.3333 45 18.3333C43.5272 18.3333 42.3333 19.5272 42.3333 21ZM14.5009 230.971C14.4847 231.246 14.6951 231.483 14.9708 231.499L19.4631 231.762C19.7388 231.778 19.9753 231.568 19.9915 231.292C20.0076 231.016 19.7972 230.78 19.5215 230.764L15.5283 230.53L15.7619 226.537C15.7781 226.261 15.5677 226.025 15.292 226.009C15.0163 225.992 14.7798 226.203 14.7636 226.478L14.5009 230.971ZM44.556 21.23C55.357 42.0842 66.8317 77.6026 66.1251 116.328C65.4187 155.04 52.5425 196.938 14.6677 230.626L15.3323 231.374C53.4575 197.462 66.4146 155.276 67.1249 116.347C67.835 77.4308 56.3097 41.7492 45.444 20.77L44.556 21.23Z" fill="#181818"/>
</svg>
